<svg width="16" height="16" viewBox="0 0 16 16" fill="none" xmlns="http://www.w3.org/2000/svg">
<path d="M14.7201 14.1602C14.7381 14.3205 14.7219 14.4829 14.6727 14.6365C14.6234 14.7902 14.5422 14.9316 14.4344 15.0516C14.3262 15.1715 14.1939 15.267 14.0462 15.332C13.8985 15.397 13.7386 15.43 13.5772 15.4288H2.42294C2.26154 15.43 2.1017 15.397 1.95397 15.332C1.80623 15.267 1.67393 15.1715 1.5658 15.0516C1.45795 14.9316 1.37673 14.7902 1.32748 14.6365C1.27824 14.4829 1.26208 14.3205 1.28008 14.1602L2.2858 5.14307H13.7144L14.7201 14.1602Z" stroke="#121111" stroke-linecap="round" stroke-linejoin="round"/>
<path d="M5.14282 5.14272V3.42843C5.14282 2.67067 5.44384 1.94395 5.97966 1.40813C6.51548 0.872309 7.2422 0.571289 7.99997 0.571289C8.75773 0.571289 9.48445 0.872309 10.0203 1.40813C10.5561 1.94395 10.8571 2.67067 10.8571 3.42843V5.14272" stroke="#121111" stroke-linecap="round" stroke-linejoin="round"/>
</svg>
